<?xml version="1.0" encoding="UTF-8"?>
<!DOCTYPE svg PUBLIC "-//W3C//DTD SVG 1.1//EN" "http://www.w3.org/Graphics/SVG/1.1/DTD/svg11.dtd">
<!-- Creator: CorelDRAW -->
<svg xmlns="http://www.w3.org/2000/svg" xml:space="preserve" width="3.1667in" height="0.55665in" version="1.1" style="shape-rendering:geometricPrecision; text-rendering:geometricPrecision; image-rendering:optimizeQuality; fill-rule:evenodd; clip-rule:evenodd"
viewBox="0 0 1829.67 321.62"
 xmlns:xlink="http://www.w3.org/1999/xlink"
 xmlns:xodm="http://www.corel.com/coreldraw/odm/2003"
 zoomAndPan="magnify">
 <defs>
  <style type="text/css">
   <![CDATA[
    .fil1 {fill:none}
    .fil2 {fill:none;fill-rule:nonzero}
    .fil0 {fill:#2A8851;fill-rule:nonzero}
   ]]>
  </style>
    <clipPath id="id0">
     <path d="M553.58 5.27l231.31 0 0 316.35 -231.31 0 0 -316.35zm0 0z"/>
    </clipPath>
    <clipPath id="id1">
     <path d="M803.08 91.03l218.31 0 0 230.59 -218.31 0 0 -230.59zm0 0z"/>
    </clipPath>
    <clipPath id="id2">
     <path d="M1029.19 91.03l218.31 0 0 230.59 -218.31 0 0 -230.59zm0 0z"/>
    </clipPath>
    <clipPath id="id3">
     <path d="M1257.9 10.47l218.31 0 0 311.15 -218.31 0 0 -311.15zm0 0z"/>
    </clipPath>
    <clipPath id="id4" style="clip-rule:nonzero">
     <path d="M1769.89 0l59.78 0 0 57.25 -59.78 0 0 -57.25zm0 0z"/>
    </clipPath>
    <clipPath id="id5" style="clip-rule:nonzero">
     <path d="M-0 5.27l475.61 0 0 316.35 -475.61 0 0 -316.35zm0 0z"/>
    </clipPath>
 </defs>
 <g id="Layer_x0020_1">
  <metadata id="CorelCorpID_0Corel-Layer"/>
  <g id="SeedFi_x0020_2_x0020_1.svg">
   <g>
   </g>
   <g style="clip-path:url(#id0)">
    <g>
     <path class="fil0" d="M696.33 144.25l-37.27 -9.14c-11.2,-2.45 -21.37,-7.1 -30.54,-13.96 -1.87,-1.67 -3.52,-3.52 -4.97,-5.56 -1.45,-2.04 -2.66,-4.21 -3.62,-6.52 -0.96,-2.3 -1.67,-4.69 -2.09,-7.16 -0.44,-2.46 -0.59,-4.93 -0.47,-7.43 -0.16,-3.08 0.02,-6.13 0.56,-9.16 0.54,-3.03 1.41,-5.97 2.62,-8.8 1.21,-2.83 2.72,-5.5 4.54,-7.99 1.82,-2.49 3.9,-4.74 6.23,-6.75 5.65,-4.19 11.86,-7.29 18.6,-9.31 6.75,-2.02 13.63,-2.84 20.67,-2.45 7.13,-0.26 14.12,0.58 20.98,2.52 6.86,1.94 13.26,4.87 19.2,8.81 5.18,3.51 9.71,7.73 13.57,12.63 3.88,4.91 6.92,10.29 9.11,16.14l48.9 -15.75c-4.64,-13.14 -11.76,-24.75 -21.37,-34.86 -10.35,-11.03 -22.63,-19.17 -36.84,-24.41 -16.41,-6.51 -33.42,-9.57 -51.07,-9.19 -34.64,0 -61.28,8 -79.91,23.99 -18.64,15.99 -27.94,38.08 -27.91,66.24 -0.18,6.87 0.54,13.65 2.16,20.32 1.62,6.68 4.1,13.03 7.42,19.05 6.86,11.27 15.88,20.43 27.06,27.46 12.11,7.47 25.07,13 38.85,16.58l37.69 9.4c13.79,3.12 26.31,8.92 37.58,17.43 2.21,1.64 4.2,3.5 5.97,5.61 1.76,2.11 3.25,4.4 4.47,6.86 1.21,2.47 2.11,5.05 2.71,7.73 0.59,2.68 0.86,5.39 0.8,8.14 0.04,3.07 -0.29,6.09 -1.03,9.08 -0.72,2.98 -1.82,5.83 -3.26,8.54 -1.45,2.71 -3.22,5.19 -5.3,7.45 -2.08,2.26 -4.42,4.23 -6.99,5.9 -11.06,7.84 -26.04,11.77 -44.95,11.77 -7.35,0.1 -14.53,-0.93 -21.54,-3.09 -7.02,-2.16 -13.52,-5.35 -19.52,-9.57 -5.07,-3.48 -9.51,-7.63 -13.31,-12.47 -3.8,-4.84 -6.78,-10.13 -8.96,-15.88l-49.74 15.49c2.87,9.58 7.38,18.33 13.52,26.24 7.22,8.61 15.51,16.01 24.9,22.2 10.82,7.03 22.46,12.28 34.9,15.75 14.44,3.93 29.15,5.82 44.11,5.68 10.29,0.27 20.5,-0.57 30.61,-2.51 10.11,-1.95 19.9,-4.96 29.35,-9.04 7.68,-3.28 14.72,-7.6 21.12,-12.96 6.39,-5.36 11.87,-11.54 16.41,-18.53 4.29,-6.93 7.49,-14.33 9.64,-22.19 2.15,-7.86 3.15,-15.86 3,-24 -0.06,-5.04 -0.6,-10.02 -1.62,-14.95 -1.03,-4.93 -2.52,-9.72 -4.48,-14.36 -1.96,-4.64 -4.34,-9.04 -7.17,-13.23 -2.81,-4.17 -6.01,-8.04 -9.58,-11.59 -15.09,-16.13 -36.34,-27.54 -63.75,-34.22zm0 0z"/>
    </g>
   </g>
   <path class="fil1" d="M553.58 5.27l231.31 0 0 316.35 -231.31 0 0 -316.35zm0 0z"/>
   <g>
   </g>
   <g style="clip-path:url(#id1)">
    <g>
     <path class="fil0" d="M993.75 219.21l25.8 0c0.3,-11.64 -0.73,-23.17 -3.1,-34.58 -2.37,-11.41 -6,-22.41 -10.9,-32.97 -4.09,-8.81 -9.33,-16.88 -15.71,-24.22 -6.39,-7.33 -13.65,-13.64 -21.83,-18.92 -7.78,-5.1 -16.12,-8.93 -25.04,-11.52 -8.92,-2.6 -18.04,-3.83 -27.33,-3.71 -10.1,-0.17 -20.03,0.99 -29.81,3.5 -9.78,2.52 -19.03,6.28 -27.79,11.3 -8.28,4.76 -15.75,10.55 -22.43,17.36 -6.68,6.81 -12.32,14.39 -16.9,22.74 -4.91,9.1 -8.6,18.67 -11.03,28.71 -2.43,10.04 -3.54,20.22 -3.33,30.56 -0.21,10.3 0.85,20.48 3.22,30.51 2.37,10.04 5.94,19.62 10.73,28.76 4.57,8.35 10.14,15.95 16.73,22.82 6.59,6.87 13.96,12.77 22.12,17.7 8.64,4.89 17.77,8.56 27.4,10.99 9.62,2.45 19.41,3.57 29.34,3.39 15.11,0.27 29.8,-2.06 44.06,-6.99 12.65,-4.29 23.86,-10.97 33.64,-20.05 9.68,-8.77 17.53,-18.93 23.58,-30.5l-44.95 -19.16c-4.65,9.32 -11.22,17.02 -19.69,23.1 -4.79,3.08 -9.95,5.36 -15.45,6.84 -5.51,1.49 -11.12,2.11 -16.81,1.87 -11.61,0.14 -22.56,-2.47 -32.85,-7.82 -4.84,-2.83 -9.23,-6.24 -13.17,-10.24 -3.93,-4 -7.26,-8.44 -9.99,-13.33 -4.34,-8.23 -6.92,-16.98 -7.75,-26.24l139.14 0 0.1 0.1zm-136.45 -38.79c0.96,-3.88 2.23,-7.65 3.8,-11.34 2.05,-5.04 4.82,-9.64 8.31,-13.8 3.5,-4.17 7.55,-7.7 12.16,-10.61 4.89,-2.84 10.09,-4.95 15.58,-6.35 5.49,-1.39 11.07,-2.01 16.73,-1.85 5.39,-0.17 10.66,0.52 15.82,2.08 5.16,1.56 9.93,3.92 14.29,7.05 4.56,3.38 8.49,7.37 11.77,11.99 3.29,4.62 5.77,9.64 7.45,15.05 0.95,2.47 1.74,5.25 2.53,7.82l-108.45 -0.05zm0 0z"/>
    </g>
   </g>
   <path class="fil1" d="M803.08 91.03l218.31 0 0 230.59 -218.31 0 0 -230.59zm0 0z"/>
   <g>
   </g>
   <g style="clip-path:url(#id2)">
    <g>
     <path class="fil0" d="M1221.11 219.21l25.74 0c0.3,-11.64 -0.73,-23.17 -3.1,-34.58 -2.37,-11.41 -6,-22.41 -10.9,-32.97 -4.1,-8.81 -9.34,-16.88 -15.73,-24.21 -6.38,-7.33 -13.65,-13.64 -21.81,-18.93 -7.78,-5.1 -16.12,-8.93 -25.04,-11.52 -8.92,-2.6 -18.04,-3.83 -27.34,-3.71 -10.14,-0.2 -20.13,0.95 -29.96,3.47 -9.83,2.51 -19.15,6.29 -27.94,11.33 -8.26,4.76 -15.73,10.55 -22.41,17.36 -6.67,6.81 -12.29,14.39 -16.87,22.74 -4.93,9.09 -8.63,18.66 -11.08,28.7 -2.45,10.04 -3.56,20.23 -3.34,30.57 -0.22,10.3 0.85,20.48 3.22,30.51 2.37,10.04 5.94,19.62 10.73,28.76 4.58,8.33 10.16,15.93 16.75,22.8 6.59,6.87 13.95,12.78 22.1,17.72 8.64,4.88 17.78,8.55 27.4,10.99 9.62,2.44 19.41,3.56 29.34,3.39 15.28,0.33 30.14,-2 44.59,-6.99 12.64,-4.28 23.83,-10.96 33.58,-20.05 9.69,-8.75 17.56,-18.92 23.58,-30.5l-44.95 -19.16c-4.62,9.32 -11.17,17.03 -19.64,23.1 -4.81,3.08 -9.97,5.36 -15.48,6.84 -5.52,1.49 -11.13,2.11 -16.84,1.87 -11.56,0.12 -22.48,-2.49 -32.74,-7.82 -4.84,-2.82 -9.23,-6.23 -13.15,-10.23 -3.93,-4 -7.25,-8.45 -9.96,-13.34 -4.34,-8.23 -6.91,-16.98 -7.75,-26.24l139.14 0 -0.15 0.1zm-136.45 -38.79c0.92,-3.89 2.17,-7.67 3.75,-11.34 2.05,-5.04 4.82,-9.64 8.33,-13.82 3.5,-4.16 7.56,-7.7 12.19,-10.59 4.88,-2.84 10.07,-4.95 15.55,-6.35 5.49,-1.4 11.06,-2.01 16.71,-1.85 5.4,-0.17 10.68,0.52 15.85,2.08 5.16,1.56 9.94,3.92 14.31,7.05 4.6,3.35 8.55,7.33 11.86,11.94 3.32,4.62 5.82,9.62 7.52,15.05 0.98,2.56 1.82,5.17 2.53,7.82l-108.61 0zm0 0z"/>
    </g>
   </g>
   <path class="fil1" d="M1029.19 91.03l218.31 0 0 230.59 -218.31 0 0 -230.59zm0 0z"/>
   <g>
   </g>
   <g style="clip-path:url(#id3)">
    <g>
     <path class="fil0" d="M1426.63 130.45c-5.77,-9.05 -13.05,-16.64 -21.85,-22.78 -6.89,-4.92 -14.39,-8.62 -22.51,-11.08 -8.1,-2.47 -16.4,-3.56 -24.87,-3.31 -9.18,-0.2 -18.19,0.91 -27.04,3.37 -8.84,2.45 -17.15,6.12 -24.92,11.01 -7.48,4.87 -14.15,10.68 -20.01,17.41 -5.86,6.73 -10.68,14.14 -14.47,22.22 -4.21,9.45 -7.32,19.26 -9.31,29.41 -1.99,10.15 -2.82,20.4 -2.49,30.74 -0.26,10.36 0.62,20.63 2.65,30.8 2.04,10.17 5.18,19.99 9.41,29.46 3.82,8.11 8.66,15.58 14.51,22.39 5.86,6.8 12.51,12.71 19.97,17.72 7.82,4.75 16.14,8.31 24.99,10.67 8.83,2.37 17.83,3.45 26.97,3.24 8.44,0.27 16.71,-0.78 24.81,-3.17 8.09,-2.37 15.61,-5.96 22.57,-10.74 8.99,-6.52 16.43,-14.5 22.27,-23.94l1.74 32.65 45.96 0 0 -305.18 -48.43 0 0.05 119.11zm-27.53 138c-4.32,2.95 -8.99,5.17 -14,6.66 -5.01,1.49 -10.14,2.17 -15.37,2.06 -5.58,0.09 -11.06,-0.61 -16.43,-2.09 -5.38,-1.48 -10.43,-3.69 -15.17,-6.63 -9.21,-6.43 -16.22,-14.7 -21.05,-24.82 -2.58,-5.69 -4.54,-11.57 -5.86,-17.68 -1.32,-6.09 -1.98,-12.26 -1.98,-18.5 0,-6.24 0.66,-12.41 1.98,-18.5 1.32,-6.1 3.28,-11.99 5.86,-17.66 2.4,-4.95 5.41,-9.47 9.04,-13.61 3.63,-4.12 7.75,-7.7 12.34,-10.7 4.62,-2.94 9.56,-5.16 14.83,-6.64 5.28,-1.48 10.65,-2.18 16.12,-2.08 5.29,-0.12 10.47,0.56 15.53,2.05 5.07,1.48 9.79,3.71 14.16,6.67 4.46,3.01 8.4,6.61 11.82,10.76 3.42,4.15 6.18,8.7 8.29,13.64 5.2,11.5 7.66,23.55 7.42,36.16 0.24,12.62 -2.22,24.67 -7.42,36.17 -2.15,4.97 -4.93,9.54 -8.34,13.75 -3.42,4.19 -7.34,7.86 -11.77,10.98zm0 0z"/>
    </g>
   </g>
   <path class="fil1" d="M1257.9 10.47l218.31 0 0 311.15 -218.31 0 0 -311.15zm0 0z"/>
   <path class="fil0" d="M1600.82 57.53l139.6 0 7.37 -46.19 -189.88 0 -51.07 305.08 50.64 0 21.32 -127.3 118.81 0 7.85 -46.19 -118.91 0 14.26 -85.4zm0 0z"/>
   <path class="fil0" d="M1727.63 316.42l48.49 0 37.11 -217.95 -48.48 0 -37.11 217.95zm0 0z"/>
   <g>
   </g>
   <g style="clip-path:url(#id4)">
    <g>
     <path class="fil0" d="M1820.64 8.3c-2.63,-2.7 -5.7,-4.77 -9.19,-6.21 -3.5,-1.44 -7.14,-2.14 -10.91,-2.08 -3.8,-0.03 -7.44,0.68 -10.96,2.11 -3.5,1.44 -6.59,3.5 -9.27,6.18 -2.83,2.56 -5.02,5.58 -6.54,9.09 -1.52,3.49 -2.25,7.15 -2.2,10.96 -0.02,3.87 0.72,7.58 2.25,11.14 1.51,3.56 3.69,6.67 6.49,9.34 2.66,2.66 5.73,4.71 9.2,6.14 3.48,1.44 7.1,2.15 10.86,2.15 3.78,0.05 7.42,-0.64 10.91,-2.08 3.49,-1.44 6.56,-3.51 9.2,-6.21 2.79,-2.68 4.94,-5.79 6.46,-9.35 1.5,-3.55 2.25,-7.27 2.22,-11.13 0.08,-3.8 -0.63,-7.44 -2.11,-10.93 -1.49,-3.49 -3.62,-6.53 -6.41,-9.12zm0 0z"/>
    </g>
   </g>
   <path class="fil2" d="M1769.89 0l59.78 0 0 57.25 -59.78 0 0 -57.25zm0 0z"/>
   <g>
   </g>
   <g style="clip-path:url(#id5)">
    <g>
     <path class="fil0" d="M317.26 5.98l0 144.35c-0.43,-5.01 -1.11,-9.99 -2.01,-14.93 -0.91,-4.95 -2.05,-9.85 -3.43,-14.68 -1.37,-4.84 -2.97,-9.6 -4.81,-14.29 -1.84,-4.68 -3.89,-9.27 -6.16,-13.77 -2.27,-4.49 -4.75,-8.86 -7.44,-13.12 -2.69,-4.25 -5.58,-8.36 -8.67,-12.34 -3.09,-3.98 -6.36,-7.81 -9.81,-11.47 -3.45,-3.66 -7.08,-7.17 -10.86,-10.49 -3.79,-3.32 -7.73,-6.46 -11.82,-9.4 -4.08,-2.95 -8.31,-5.7 -12.66,-8.24 -4.34,-2.55 -8.81,-4.87 -13.38,-6.99 -4.58,-2.12 -9.24,-4.02 -14,-5.7 -4.75,-1.67 -9.58,-3.13 -14.48,-4.33 -4.89,-1.22 -9.84,-2.2 -14.82,-2.95 -5,-0.74 -10.01,-1.25 -15.05,-1.52 -5.04,-0.26 -10.07,-0.3 -15.12,-0.08 -5.03,0.21 -10.06,0.67 -15.05,1.36 -5,0.69 -9.95,1.62 -14.85,2.77 -4.91,1.17 -9.76,2.56 -14.53,4.18 -4.77,1.62 -9.46,3.47 -14.06,5.54 -4.59,2.07 -9.09,4.36 -13.46,6.85 -4.37,2.5 -8.63,5.2 -12.75,8.1 -4.11,2.9 -8.09,5.99 -11.91,9.27 -3.83,3.29 -7.48,6.74 -10.98,10.37 -3.49,3.63 -6.81,7.42 -9.94,11.37 -3.13,3.94 -6.06,8.03 -8.8,12.25 -2.74,4.22 -5.27,8.57 -7.59,13.04 -2.32,4.47 -4.43,9.02 -6.3,13.69 -1.89,4.66 -3.54,9.41 -4.97,14.23 -1.43,4.82 -2.63,9.71 -3.59,14.64 -0.96,4.94 -1.69,9.92 -2.17,14.92 -0.48,5 -0.73,10.02 -0.73,15.05l0 157.95 158.46 0c4.9,0 9.81,-0.22 14.69,-0.67 4.89,-0.46 9.74,-1.13 14.57,-2.03 4.83,-0.9 9.6,-2.02 14.32,-3.37 4.72,-1.34 9.36,-2.9 13.94,-4.68 4.58,-1.77 9.06,-3.76 13.45,-5.95 4.39,-2.18 8.67,-4.58 12.83,-7.16 4.17,-2.59 8.2,-5.37 12.11,-8.33 3.91,-2.96 7.67,-6.1 11.29,-9.41 3.62,-3.31 7.07,-6.78 10.36,-10.42 3.29,-3.63 6.41,-7.4 9.35,-11.32 2.94,-3.92 5.69,-7.97 8.25,-12.14 2.57,-4.17 4.93,-8.46 7.1,-12.85 2.16,-4.4 4.12,-8.88 5.87,-13.45 1.74,-4.58 3.27,-9.23 4.58,-13.94 1.32,-4.72 2.41,-9.49 3.28,-14.3 0.86,-4.82 1.5,-9.67 1.92,-14.55l0 144.2c5.18,0 10.35,-0.25 15.5,-0.76 5.15,-0.51 10.26,-1.26 15.34,-2.27 5.08,-1.01 10.09,-2.25 15.05,-3.76 4.95,-1.49 9.83,-3.24 14.61,-5.21 4.78,-1.98 9.46,-4.18 14.03,-6.62 4.56,-2.43 8.99,-5.08 13.3,-7.95 4.3,-2.87 8.46,-5.94 12.47,-9.22 4,-3.27 7.83,-6.73 11.49,-10.38 3.66,-3.66 7.14,-7.47 10.42,-11.46 3.29,-3.99 6.36,-8.13 9.24,-12.43 2.88,-4.29 5.54,-8.71 7.98,-13.27 2.44,-4.55 4.65,-9.22 6.63,-13.98 1.98,-4.77 3.73,-9.62 5.23,-14.57 1.5,-4.95 2.76,-9.94 3.77,-15 1.01,-5.07 1.78,-10.16 2.28,-15.3 0.51,-5.15 0.76,-10.3 0.76,-15.45 0,-5.17 -0.25,-10.31 -0.76,-15.45 -0.51,-5.14 -1.27,-10.24 -2.28,-15.31 -1.01,-5.05 -2.27,-10.06 -3.77,-15 -1.5,-4.93 -3.25,-9.8 -5.23,-14.56 -1.98,-4.77 -4.19,-9.43 -6.63,-13.99 -2.44,-4.55 -5.1,-8.98 -7.98,-13.27 -2.87,-4.29 -5.95,-8.43 -9.24,-12.42 -3.28,-3.99 -6.76,-7.81 -10.42,-11.46 -3.66,-3.64 -7.49,-7.11 -11.49,-10.39 -4.01,-3.28 -8.16,-6.34 -12.47,-9.22 -4.3,-2.86 -8.74,-5.51 -13.3,-7.95 -4.57,-2.44 -9.25,-4.64 -14.03,-6.62 -4.78,-1.97 -9.65,-3.7 -14.61,-5.21 -4.95,-1.5 -9.97,-2.75 -15.05,-3.76 -5.08,-1.01 -10.19,-1.77 -15.34,-2.27 -5.16,-0.51 -10.33,-0.76 -15.5,-0.76l-0.15 0zm0 0z"/>
    </g>
   </g>
   <path class="fil2" d="M-0 5.27l475.61 0 0 316.35 -475.61 0 0 -316.35zm0 0z"/>
  </g>
 </g>
</svg>
